<svg xmlns="http://www.w3.org/2000/svg" width="29" height="29" viewBox="0 0 29 29">
  <g id="instagram-logo" opacity="0.653">
    <path id="Path_64" data-name="Path 64" d="M21,0H8A8.012,8.012,0,0,0,0,8V21a8.012,8.012,0,0,0,8,8H21a8.012,8.012,0,0,0,8-8V8A8.012,8.012,0,0,0,21,0Zm5.43,21A5.436,5.436,0,0,1,21,26.427H8A5.436,5.436,0,0,1,2.573,21V8A5.436,5.436,0,0,1,8,2.573H21A5.436,5.436,0,0,1,26.427,8V21Z" fill="#e27866"/>
    <path id="Path_65" data-name="Path 65" d="M48.441,40.97a7.472,7.472,0,1,0,7.473,7.473A7.481,7.481,0,0,0,48.441,40.97Zm0,12.372a4.9,4.9,0,1,1,4.9-4.9A4.9,4.9,0,0,1,48.441,53.342Z" transform="translate(-33.941 -33.942)" fill="#e27866"/>
    <path id="Path_66" data-name="Path 66" d="M120.808,28.251a1.886,1.886,0,1,0,1.335.552A1.894,1.894,0,0,0,120.808,28.251Z" transform="translate(-98.522 -23.405)" fill="#e27866"/>
  </g>
</svg>
